<svg width="500" height="500" viewBox="0 0 500 500" fill="none" xmlns="http://www.w3.org/2000/svg">
<g clip-path="url(#clip0_204_4)">
<rect width="500" height="500" fill="#2967C7"/>
<path d="M-166.404 225L-152.1 157.8H-136.836L-115.524 198.216L-106.98 157.8H-91.716L-106.02 225H-120.324L-142.212 183.048L-151.14 225H-166.404ZM-63.2843 226.056C-67.9563 226.056 -72.2763 225.256 -76.2443 223.656C-80.2123 222.056 -83.7003 219.848 -86.7083 217.032C-89.6523 214.152 -91.9563 210.792 -93.6203 206.952C-95.2203 203.048 -96.0203 198.824 -96.0203 194.28C-96.0203 189.096 -95.0603 184.264 -93.1403 179.784C-91.1563 175.24 -88.4363 171.24 -84.9803 167.784C-81.4603 164.328 -77.4283 161.64 -72.8842 159.72C-68.3403 157.736 -63.4763 156.744 -58.2922 156.744C-53.6202 156.744 -49.3002 157.544 -45.3322 159.144C-41.3642 160.744 -37.9082 162.984 -34.9642 165.864C-31.9562 168.68 -29.6522 172.04 -28.0522 175.944C-26.3882 179.784 -25.5562 183.976 -25.5562 188.52C-25.5562 193.704 -26.5483 198.568 -28.5323 203.112C-30.4522 207.592 -33.1722 211.56 -36.6922 215.016C-40.1483 218.472 -44.1483 221.192 -48.6922 223.176C-53.2362 225.096 -58.1003 226.056 -63.2843 226.056ZM-62.2282 210.888C-59.4122 210.888 -56.8202 210.344 -54.4522 209.256C-52.0203 208.168 -49.8763 206.664 -48.0203 204.744C-46.1642 202.76 -44.7242 200.488 -43.7003 197.928C-42.6762 195.304 -42.1642 192.52 -42.1642 189.576C-42.1642 186.184 -42.9002 183.176 -44.3722 180.552C-45.8442 177.864 -47.8922 175.752 -50.5162 174.216C-53.0763 172.68 -56.0203 171.912 -59.3482 171.912C-62.1003 171.912 -64.6923 172.456 -67.1242 173.544C-69.5563 174.632 -71.7003 176.168 -73.5562 178.152C-75.4123 180.072 -76.8523 182.344 -77.8763 184.968C-78.9003 187.528 -79.4123 190.28 -79.4123 193.224C-79.4123 196.616 -78.6763 199.656 -77.2043 202.344C-75.7323 204.968 -73.7163 207.048 -71.1563 208.584C-68.5323 210.12 -65.5563 210.888 -62.2282 210.888ZM1.9815 225.864C-4.6105 225.864 -10.1145 224.488 -14.5305 221.736C-18.8825 218.92 -21.9225 215.016 -23.6505 210.024C-25.3145 204.968 -25.4425 199.144 -24.0345 192.552L-16.6425 157.8H-0.418503L-8.1945 194.28C-8.8985 197.608 -8.8985 200.52 -8.1945 203.016C-7.4905 205.448 -6.1785 207.336 -4.2585 208.68C-2.2745 210.024 0.189497 210.696 3.1335 210.696C6.9735 210.696 10.3335 209.448 13.2135 206.952C16.0935 204.456 17.9495 201.192 18.7815 197.16L27.1335 157.8H43.2615L34.5255 198.792C33.3095 204.424 31.1975 209.256 28.1895 213.288C25.1815 217.32 21.4375 220.424 16.9575 222.6C12.5415 224.776 7.5495 225.864 1.9815 225.864ZM53.9918 225L41.3198 157.8H58.2158L66.5678 207.816L96.0398 157.8H113.512L72.6158 225H53.9918ZM98.2747 225L112.579 157.8H164.515L161.443 172.104H125.635L123.043 184.2H146.659L143.779 198.024H120.163L117.475 210.696H153.667L150.595 225H98.2747ZM149.371 225L190.363 157.8H208.891L221.563 225H204.859L202.171 208.776H176.443L167.035 225H149.371ZM184.027 195.624H200.059L196.507 174.12L184.027 195.624ZM247.817 225.864C241.225 225.864 235.721 224.488 231.305 221.736C226.953 218.92 223.913 215.016 222.185 210.024C220.521 204.968 220.393 199.144 221.801 192.552L229.193 157.8H245.417L237.641 194.28C236.937 197.608 236.937 200.52 237.641 203.016C238.345 205.448 239.657 207.336 241.577 208.68C243.561 210.024 246.025 210.696 248.969 210.696C252.809 210.696 256.169 209.448 259.049 206.952C261.929 204.456 263.785 201.192 264.617 197.16L272.969 157.8H289.097L280.361 198.792C279.145 204.424 277.033 209.256 274.025 213.288C271.017 217.32 267.273 220.424 262.793 222.6C258.377 224.776 253.385 225.864 247.817 225.864Z" fill="white" fill-opacity="0.25"/>
<path d="M-4.904 33L9.4 -34.2H24.664L45.976 6.216L54.52 -34.2H69.784L55.48 33H41.176L19.288 -8.952L10.36 33H-4.904ZM66.4398 33L80.7438 -34.2H132.68L129.608 -19.896H93.7998L91.2078 -7.8H114.824L111.944 6.024H88.3278L85.6398 18.696H121.832L118.76 33H66.4398ZM160.47 33.864C153.878 33.864 148.374 32.488 143.958 29.736C139.606 26.92 136.566 23.016 134.838 18.024C133.174 12.968 133.046 7.144 134.454 0.551997L141.846 -34.2H158.07L150.294 2.28C149.59 5.608 149.59 8.52 150.294 11.016C150.998 13.448 152.31 15.336 154.23 16.68C156.214 18.024 158.678 18.696 161.622 18.696C165.462 18.696 168.822 17.448 171.702 14.952C174.582 12.456 176.438 9.192 177.27 5.16L185.622 -34.2L201.75 -34.2L193.014 6.792C191.798 12.424 189.686 17.256 186.678 21.288C183.67 25.32 179.926 28.424 175.446 30.6C171.03 32.776 166.038 33.864 160.47 33.864Z" fill="white" fill-opacity="0.25"/>
<path d="M-102.504 129L-88.008 60.456H-73.704L-79.368 87.336H-57.288L-51.624 60.456H-37.32L-51.816 129H-66.12L-59.88 99.432H-81.96L-88.2 129H-102.504ZM-6.58125 129.96C-12.1492 129.96 -16.8212 128.872 -20.5972 126.696C-24.3732 124.52 -27.2212 121.48 -29.1412 117.576C-31.0612 113.672 -32.0212 109.096 -32.0212 103.848C-32.0212 100.264 -31.7012 96.712 -31.0612 93.192C-30.4212 89.608 -29.4612 86.152 -28.1812 82.824C-26.8372 79.496 -25.2052 76.424 -23.2852 73.608C-21.3012 70.792 -18.9652 68.328 -16.2772 66.216C-13.5892 64.04 -10.5492 62.376 -7.15725 61.224C-3.70125 60.008 0.106752 59.4 4.26675 59.4C12.5868 59.4 18.8268 61.736 22.9868 66.408C27.2108 71.08 29.3228 77.288 29.3228 85.032C29.3228 88.744 29.0028 92.424 28.3628 96.072C27.7868 99.72 26.8588 103.24 25.5788 106.632C24.2988 109.96 22.6668 113.064 20.6828 115.944C18.7628 118.76 16.4588 121.224 13.7708 123.336C11.1468 125.384 8.13875 127.016 4.74675 128.232C1.35475 129.384 -2.42125 129.96 -6.58125 129.96ZM-5.52525 117.768C-3.66925 117.768 -1.87725 117.448 -0.149248 116.808C1.57875 116.104 3.17875 115.112 4.65075 113.832C6.18675 112.488 7.56275 110.888 8.77875 109.032C9.99475 107.112 11.0508 104.968 11.9468 102.6C12.8428 100.168 13.5148 97.512 13.9628 94.632C14.4748 91.752 14.7308 88.68 14.7308 85.416C14.7308 81.192 13.7388 77.832 11.7548 75.336C9.83475 72.776 6.95475 71.496 3.11475 71.496C1.13075 71.496 -0.757249 71.88 -2.54925 72.648C-4.34125 73.416 -6.00525 74.536 -7.54125 76.008C-9.01325 77.416 -10.3892 79.112 -11.6692 81.096C-12.8852 83.08 -13.9412 85.288 -14.8372 87.72C-15.6692 90.088 -16.3092 92.648 -16.7572 95.4C-17.2052 98.088 -17.4292 100.904 -17.4292 103.848C-17.4292 106.856 -16.9812 109.416 -16.0852 111.528C-15.1252 113.576 -13.7492 115.144 -11.9572 116.232C-10.1652 117.256 -8.02125 117.768 -5.52525 117.768ZM34.8398 129L49.3358 60.456L69.3038 60.456C73.6558 60.456 77.4638 60.968 80.7278 61.992C83.9918 63.016 86.5198 64.648 88.3118 66.888C90.1038 69.128 90.9998 72.072 90.9998 75.72C90.9998 78.856 90.3918 81.608 89.1758 83.976C88.0238 86.344 86.3278 88.328 84.0878 89.928C81.9118 91.464 79.2238 92.584 76.0238 93.288V93.672C79.1598 94.504 81.6558 96.04 83.5118 98.28C85.3678 100.456 86.2958 103.24 86.2958 106.632C86.2958 111.816 85.1118 116.072 82.7438 119.4C80.3758 122.664 77.1438 125.096 73.0478 126.696C69.0158 128.232 64.4398 129 59.3198 129H34.8398ZM60.0878 117C62.4558 117 64.5038 116.616 66.2318 115.848C67.9598 115.08 69.3038 113.928 70.2638 112.392C71.2878 110.856 71.7998 108.968 71.7998 106.728C71.7998 104.296 71.0958 102.44 69.6878 101.16C68.2798 99.816 66.1358 99.144 63.2558 99.144H55.4798L51.6398 117H60.0878ZM64.8878 87.624C67.1918 87.624 69.1758 87.336 70.8398 86.76C72.5678 86.12 73.8798 85.16 74.7758 83.88C75.7358 82.536 76.2158 80.84 76.2158 78.792C76.2158 76.68 75.5438 75.08 74.1998 73.992C72.9198 72.904 70.9358 72.36 68.2478 72.36H61.1438L57.8798 87.624H64.8878ZM94.371 129L108.867 60.456H123.171L117.603 86.76H119.331C124.707 86.76 129.059 87.56 132.387 89.16C135.779 90.76 138.275 93 139.875 95.88C141.475 98.76 142.275 102.12 142.275 105.96C142.275 109.8 141.603 113.16 140.259 116.04C138.979 118.92 137.091 121.32 134.595 123.24C132.099 125.16 129.059 126.6 125.475 127.56C121.955 128.52 117.955 129 113.475 129H94.371ZM114.435 117.096C116.931 117.096 119.011 116.808 120.675 116.232C122.403 115.656 123.779 114.888 124.803 113.928C125.891 112.968 126.659 111.88 127.107 110.664C127.555 109.384 127.779 108.04 127.779 106.632C127.779 104.008 127.011 102.024 125.475 100.68C124.003 99.336 121.763 98.664 118.755 98.664H115.107L111.171 117.096H114.435ZM148.131 129L162.627 60.456H177.315L162.819 129H148.131ZM222.989 54.696C217.805 54.696 213.805 53.992 210.989 52.584C208.173 51.176 206.221 49.352 205.133 47.112C204.109 44.872 203.597 42.536 203.597 40.104C203.597 39.72 203.597 39.336 203.597 38.952C203.661 38.568 203.725 38.216 203.789 37.896H216.269C216.205 38.408 216.173 38.824 216.173 39.144C216.173 39.464 216.173 39.784 216.173 40.104C216.173 42.408 216.877 44.072 218.285 45.096C219.693 46.12 221.645 46.632 224.141 46.632C227.021 46.632 229.325 45.992 231.052 44.712C232.845 43.432 234.125 41.16 234.893 37.896H247.661C246.829 41.288 245.485 44.264 243.629 46.824C241.837 49.32 239.277 51.272 235.949 52.68C232.685 54.024 228.365 54.696 222.989 54.696ZM179.309 129L193.805 60.456H206.957L200.045 92.904C199.725 94.504 199.309 96.296 198.797 98.28C198.349 100.264 197.901 102.216 197.453 104.136C197.005 106.056 196.557 107.816 196.109 109.416H196.589L232.397 60.456L249.773 60.456L235.277 129H222.317L229.133 96.744C229.517 94.888 229.901 93.032 230.285 91.176C230.733 89.32 231.181 87.4 231.629 85.416C232.077 83.432 232.557 81.384 233.069 79.272L232.685 79.176L196.877 129H179.309Z" fill="white" fill-opacity="0.25"/>
<path d="M333.596 225L347.9 157.8H363.164L384.476 198.216L393.02 157.8H408.284L393.98 225H379.676L357.788 183.048L348.86 225H333.596ZM436.716 226.056C432.044 226.056 427.724 225.256 423.756 223.656C419.788 222.056 416.3 219.848 413.292 217.032C410.348 214.152 408.044 210.792 406.38 206.952C404.78 203.048 403.98 198.824 403.98 194.28C403.98 189.096 404.94 184.264 406.86 179.784C408.844 175.24 411.564 171.24 415.02 167.784C418.54 164.328 422.572 161.64 427.116 159.72C431.66 157.736 436.524 156.744 441.708 156.744C446.38 156.744 450.7 157.544 454.668 159.144C458.636 160.744 462.092 162.984 465.036 165.864C468.044 168.68 470.348 172.04 471.948 175.944C473.612 179.784 474.444 183.976 474.444 188.52C474.444 193.704 473.452 198.568 471.468 203.112C469.548 207.592 466.828 211.56 463.308 215.016C459.852 218.472 455.852 221.192 451.308 223.176C446.764 225.096 441.9 226.056 436.716 226.056ZM437.772 210.888C440.588 210.888 443.18 210.344 445.548 209.256C447.98 208.168 450.124 206.664 451.98 204.744C453.836 202.76 455.276 200.488 456.3 197.928C457.324 195.304 457.836 192.52 457.836 189.576C457.836 186.184 457.1 183.176 455.628 180.552C454.156 177.864 452.108 175.752 449.484 174.216C446.924 172.68 443.98 171.912 440.652 171.912C437.9 171.912 435.308 172.456 432.876 173.544C430.444 174.632 428.3 176.168 426.444 178.152C424.588 180.072 423.148 182.344 422.124 184.968C421.1 187.528 420.588 190.28 420.588 193.224C420.588 196.616 421.324 199.656 422.796 202.344C424.268 204.968 426.284 207.048 428.844 208.584C431.468 210.12 434.444 210.888 437.772 210.888ZM501.981 225.864C495.389 225.864 489.885 224.488 485.469 221.736C481.117 218.92 478.077 215.016 476.349 210.024C474.685 204.968 474.557 199.144 475.965 192.552L483.357 157.8H499.581L491.805 194.28C491.101 197.608 491.101 200.52 491.805 203.016C492.509 205.448 493.821 207.336 495.741 208.68C497.725 210.024 500.189 210.696 503.133 210.696C506.973 210.696 510.333 209.448 513.213 206.952C516.093 204.456 517.949 201.192 518.781 197.16L527.133 157.8H543.262L534.525 198.792C533.309 204.424 531.198 209.256 528.19 213.288C525.181 217.32 521.437 220.424 516.957 222.6C512.541 224.776 507.549 225.864 501.981 225.864ZM553.992 225L541.32 157.8H558.216L566.568 207.816L596.04 157.8H613.512L572.616 225H553.992ZM598.275 225L612.579 157.8H664.515L661.443 172.104H625.635L623.043 184.2H646.659L643.779 198.024H620.163L617.475 210.696H653.667L650.595 225H598.275ZM649.371 225L690.363 157.8H708.891L721.563 225H704.859L702.171 208.776H676.443L667.035 225H649.371ZM684.027 195.624H700.059L696.507 174.12L684.027 195.624ZM747.817 225.864C741.225 225.864 735.721 224.488 731.305 221.736C726.953 218.92 723.913 215.016 722.185 210.024C720.521 204.968 720.393 199.144 721.801 192.552L729.193 157.8H745.417L737.641 194.28C736.937 197.608 736.937 200.52 737.641 203.016C738.345 205.448 739.657 207.336 741.577 208.68C743.561 210.024 746.025 210.696 748.969 210.696C752.809 210.696 756.169 209.448 759.049 206.952C761.929 204.456 763.785 201.192 764.617 197.16L772.969 157.8H789.097L780.361 198.792C779.145 204.424 777.033 209.256 774.025 213.288C771.017 217.32 767.273 220.424 762.793 222.6C758.377 224.776 753.385 225.864 747.817 225.864Z" fill="white" fill-opacity="0.25"/>
<path d="M495.096 33L509.4 -34.2H524.664L545.976 6.216L554.52 -34.2H569.784L555.48 33H541.176L519.288 -8.952L510.36 33H495.096ZM566.44 33L580.744 -34.2H632.68L629.608 -19.896H593.8L591.208 -7.8H614.824L611.944 6.024H588.328L585.64 18.696H621.832L618.76 33H566.44ZM660.47 33.864C653.878 33.864 648.374 32.488 643.958 29.736C639.606 26.92 636.566 23.016 634.838 18.024C633.174 12.968 633.046 7.144 634.454 0.551997L641.846 -34.2H658.07L650.294 2.28C649.59 5.608 649.59 8.52 650.294 11.016C650.998 13.448 652.31 15.336 654.23 16.68C656.214 18.024 658.678 18.696 661.622 18.696C665.462 18.696 668.822 17.448 671.702 14.952C674.582 12.456 676.438 9.192 677.27 5.16L685.622 -34.2L701.75 -34.2L693.014 6.792C691.798 12.424 689.686 17.256 686.678 21.288C683.67 25.32 679.926 28.424 675.446 30.6C671.03 32.776 666.038 33.864 660.47 33.864Z" fill="white" fill-opacity="0.25"/>
<path d="M270.928 13.04C273.808 13.04 276.016 12.784 277.552 12.272C279.088 11.76 280.144 11.088 280.72 10.256C281.296 9.424 281.584 8.528 281.584 7.568C281.584 6.032 281.136 4.24 280.24 2.192C279.408 0.144 278.352 -2 277.072 -4.24C275.792 -6.48 274.448 -8.624 273.04 -10.672C271.696 -12.72 270.48 -14.512 269.392 -16.048L280.816 -23.632C283.568 -19.92 285.936 -16.24 287.92 -12.592C289.904 -9.008 291.504 -5.68 292.72 -2.608C294 0.464 294.896 3.088 295.408 5.264C295.92 7.312 296.688 8.912 297.712 10.064C298.8 11.152 300.048 11.92 301.456 12.368C302.864 12.816 304.272 13.04 305.68 13.04C308.112 13.04 309.84 13.68 310.864 14.96C311.952 16.176 312.496 17.712 312.496 19.568C312.496 21.552 311.824 23.216 310.48 24.56C309.2 25.84 307.28 26.48 304.72 26.48C301.904 26.48 299.44 26.096 297.328 25.328C295.216 24.56 293.424 23.344 291.952 21.68C290.48 20.016 289.232 17.904 288.208 15.344L294.064 16.592C293.552 18.384 292.368 20.048 290.512 21.584C288.72 23.056 286.32 24.272 283.312 25.232C280.368 26.128 276.88 26.576 272.848 26.576C270.928 26.576 268.784 26.416 266.416 26.096C264.112 25.776 261.808 25.296 259.504 24.656C257.264 24.016 255.216 23.184 253.36 22.16L258.064 9.968C260.432 10.992 262.704 11.76 264.88 12.272C267.12 12.784 269.136 13.04 270.928 13.04ZM304.844 26.48L305.804 13.04C309.644 13.04 312.588 12.848 314.636 12.464C316.684 12.08 318.092 11.376 318.86 10.352C319.692 9.264 320.108 7.728 320.108 5.744C320.108 3.952 319.852 1.808 319.34 -0.688003C318.892 -3.184 318.284 -5.776 317.516 -8.464C316.812 -11.152 316.044 -13.616 315.212 -15.856L328.46 -19.504C329.292 -17.328 330.092 -14.8 330.86 -11.92C331.628 -9.04 332.268 -6.064 332.78 -2.992C333.292 0.0159979 333.548 2.928 333.548 5.744C333.548 10.096 332.844 13.648 331.436 16.4C330.028 19.088 328.044 21.168 325.484 22.64C322.988 24.112 319.98 25.136 316.46 25.712C312.94 26.224 309.068 26.48 304.844 26.48ZM328.556 48.752C326.7 48.752 325.1 48.08 323.756 46.736C322.476 45.456 321.836 43.92 321.836 42.128C321.836 40.272 322.476 38.672 323.756 37.328C325.1 35.984 326.7 35.312 328.556 35.312C330.348 35.312 331.884 35.984 333.164 37.328C334.444 38.672 335.084 40.272 335.084 42.128C335.084 43.92 334.444 45.456 333.164 46.736C331.884 48.08 330.348 48.752 328.556 48.752ZM311.948 48.752C310.092 48.752 308.492 48.08 307.148 46.736C305.868 45.456 305.228 43.92 305.228 42.128C305.228 40.272 305.868 38.672 307.148 37.328C308.492 35.984 310.092 35.312 311.948 35.312C313.74 35.312 315.276 35.984 316.556 37.328C317.836 38.672 318.476 40.272 318.476 42.128C318.476 43.92 317.836 45.456 316.556 46.736C315.276 48.08 313.74 48.752 311.948 48.752ZM360.272 13.04C363.152 13.04 365.36 12.784 366.896 12.272C368.432 11.76 369.488 11.088 370.064 10.256C370.64 9.424 370.928 8.528 370.928 7.568C370.928 6.032 370.48 4.24 369.584 2.192C368.752 0.144 367.696 -2 366.416 -4.24C365.136 -6.48 363.792 -8.624 362.384 -10.672C361.04 -12.72 359.824 -14.512 358.736 -16.048L370.16 -23.632C372.912 -19.92 375.28 -16.24 377.264 -12.592C379.248 -9.008 380.848 -5.68 382.064 -2.608C383.344 0.464 384.24 3.088 384.752 5.264C385.264 7.312 386.032 8.912 387.056 10.064C388.144 11.152 389.392 11.92 390.8 12.368C392.208 12.816 393.616 13.04 395.024 13.04C397.456 13.04 399.184 13.68 400.208 14.96C401.296 16.176 401.84 17.712 401.84 19.568C401.84 21.552 401.168 23.216 399.824 24.56C398.544 25.84 396.624 26.48 394.064 26.48C391.248 26.48 388.784 26.096 386.672 25.328C384.56 24.56 382.768 23.344 381.296 21.68C379.824 20.016 378.576 17.904 377.552 15.344L383.408 16.592C382.896 18.384 381.712 20.048 379.856 21.584C378.064 23.056 375.664 24.272 372.656 25.232C369.712 26.128 366.224 26.576 362.192 26.576C360.272 26.576 358.128 26.416 355.76 26.096C353.456 25.776 351.152 25.296 348.848 24.656C346.608 24.016 344.56 23.184 342.704 22.16L347.408 9.968C349.776 10.992 352.048 11.76 354.224 12.272C356.464 12.784 358.48 13.04 360.272 13.04ZM394.188 26.48L395.148 13.04C398.604 13.04 402.028 12.848 405.42 12.464C408.812 12.08 412.108 11.504 415.308 10.736C418.508 9.968 421.548 8.976 424.428 7.76C427.372 6.544 430.124 5.072 432.684 3.344C430.764 2.192 428.684 1.2 426.444 0.367998C424.204 -0.464001 421.804 -1.072 419.244 -1.456C416.748 -1.904 414.092 -2.128 411.276 -2.128C410.252 -2.128 409.164 -2.096 408.012 -2.032C406.924 -1.968 405.804 -1.84 404.652 -1.648C403.5 -1.52 402.348 -1.328 401.196 -1.072L399.276 -14.224C401.132 -14.736 403.084 -15.088 405.132 -15.28C407.244 -15.536 409.1 -15.664 410.7 -15.664C414.156 -15.664 417.324 -15.28 420.204 -14.512C423.148 -13.744 425.836 -12.784 428.268 -11.632C430.764 -10.48 433.068 -9.328 435.18 -8.176C437.356 -7.024 439.404 -6.064 441.324 -5.296C443.308 -4.528 445.228 -4.144 447.083 -4.144H450.635L452.172 8.624C449.42 8.752 446.828 9.296 444.396 10.256C442.028 11.152 439.66 12.304 437.292 13.712C434.988 15.056 432.492 16.464 429.804 17.936C427.18 19.408 424.204 20.784 420.876 22.064C417.548 23.344 413.708 24.4 409.356 25.232C405.004 26.064 399.948 26.48 394.188 26.48ZM422.988 48.56C421.132 48.56 419.532 47.92 418.188 46.64C416.908 45.36 416.268 43.792 416.268 41.936C416.268 40.08 416.908 38.448 418.188 37.04C419.532 35.696 421.132 35.024 422.988 35.024C424.844 35.024 426.412 35.696 427.692 37.04C429.036 38.448 429.708 40.08 429.708 41.936C429.708 43.792 429.036 45.36 427.692 46.64C426.412 47.92 424.844 48.56 422.988 48.56Z" fill="white" fill-opacity="0.25"/>
<path d="M397.496 129L411.992 60.456H426.296L420.632 87.336H442.712L448.376 60.456H462.68L448.184 129H433.88L440.12 99.432H418.04L411.8 129H397.496ZM493.419 129.96C487.851 129.96 483.179 128.872 479.403 126.696C475.627 124.52 472.779 121.48 470.859 117.576C468.939 113.672 467.979 109.096 467.979 103.848C467.979 100.264 468.299 96.712 468.939 93.192C469.579 89.608 470.539 86.152 471.819 82.824C473.163 79.496 474.795 76.424 476.715 73.608C478.699 70.792 481.035 68.328 483.723 66.216C486.411 64.04 489.451 62.376 492.843 61.224C496.299 60.008 500.107 59.4 504.267 59.4C512.587 59.4 518.827 61.736 522.987 66.408C527.211 71.08 529.323 77.288 529.323 85.032C529.323 88.744 529.003 92.424 528.363 96.072C527.787 99.72 526.859 103.24 525.579 106.632C524.299 109.96 522.667 113.064 520.683 115.944C518.763 118.76 516.459 121.224 513.771 123.336C511.147 125.384 508.139 127.016 504.747 128.232C501.355 129.384 497.579 129.96 493.419 129.96ZM494.475 117.768C496.331 117.768 498.123 117.448 499.851 116.808C501.579 116.104 503.179 115.112 504.651 113.832C506.187 112.488 507.563 110.888 508.779 109.032C509.995 107.112 511.051 104.968 511.947 102.6C512.843 100.168 513.515 97.512 513.963 94.632C514.475 91.752 514.731 88.68 514.731 85.416C514.731 81.192 513.739 77.832 511.755 75.336C509.835 72.776 506.955 71.496 503.115 71.496C501.131 71.496 499.243 71.88 497.451 72.648C495.659 73.416 493.995 74.536 492.459 76.008C490.987 77.416 489.611 79.112 488.331 81.096C487.115 83.08 486.059 85.288 485.163 87.72C484.331 90.088 483.691 92.648 483.243 95.4C482.795 98.088 482.571 100.904 482.571 103.848C482.571 106.856 483.019 109.416 483.915 111.528C484.875 113.576 486.251 115.144 488.043 116.232C489.835 117.256 491.979 117.768 494.475 117.768ZM534.84 129L549.336 60.456L569.304 60.456C573.656 60.456 577.464 60.968 580.728 61.992C583.992 63.016 586.52 64.648 588.312 66.888C590.104 69.128 591 72.072 591 75.72C591 78.856 590.392 81.608 589.176 83.976C588.024 86.344 586.328 88.328 584.088 89.928C581.912 91.464 579.224 92.584 576.024 93.288V93.672C579.16 94.504 581.656 96.04 583.512 98.28C585.368 100.456 586.296 103.24 586.296 106.632C586.296 111.816 585.112 116.072 582.744 119.4C580.376 122.664 577.144 125.096 573.048 126.696C569.016 128.232 564.44 129 559.32 129H534.84ZM560.088 117C562.456 117 564.504 116.616 566.232 115.848C567.96 115.08 569.304 113.928 570.264 112.392C571.288 110.856 571.8 108.968 571.8 106.728C571.8 104.296 571.096 102.44 569.688 101.16C568.28 99.816 566.136 99.144 563.256 99.144H555.48L551.64 117H560.088ZM564.888 87.624C567.192 87.624 569.176 87.336 570.84 86.76C572.568 86.12 573.88 85.16 574.776 83.88C575.736 82.536 576.216 80.84 576.216 78.792C576.216 76.68 575.544 75.08 574.2 73.992C572.92 72.904 570.936 72.36 568.248 72.36H561.144L557.88 87.624H564.888ZM594.371 129L608.867 60.456H623.171L617.603 86.76H619.331C624.707 86.76 629.059 87.56 632.387 89.16C635.779 90.76 638.275 93 639.875 95.88C641.475 98.76 642.275 102.12 642.275 105.96C642.275 109.8 641.603 113.16 640.259 116.04C638.979 118.92 637.091 121.32 634.595 123.24C632.099 125.16 629.059 126.6 625.475 127.56C621.955 128.52 617.955 129 613.475 129H594.371ZM614.435 117.096C616.931 117.096 619.011 116.808 620.675 116.232C622.403 115.656 623.779 114.888 624.803 113.928C625.891 112.968 626.659 111.88 627.107 110.664C627.555 109.384 627.779 108.04 627.779 106.632C627.779 104.008 627.011 102.024 625.475 100.68C624.003 99.336 621.763 98.664 618.755 98.664H615.107L611.171 117.096H614.435ZM648.131 129L662.627 60.456H677.315L662.819 129H648.131ZM722.989 54.696C717.805 54.696 713.805 53.992 710.989 52.584C708.173 51.176 706.221 49.352 705.133 47.112C704.109 44.872 703.597 42.536 703.597 40.104C703.597 39.72 703.597 39.336 703.597 38.952C703.661 38.568 703.725 38.216 703.789 37.896H716.269C716.205 38.408 716.173 38.824 716.173 39.144C716.173 39.464 716.173 39.784 716.173 40.104C716.173 42.408 716.877 44.072 718.285 45.096C719.693 46.12 721.645 46.632 724.141 46.632C727.021 46.632 729.325 45.992 731.052 44.712C732.845 43.432 734.125 41.16 734.893 37.896H747.661C746.829 41.288 745.485 44.264 743.629 46.824C741.837 49.32 739.277 51.272 735.949 52.68C732.685 54.024 728.365 54.696 722.989 54.696ZM679.309 129L693.805 60.456H706.957L700.045 92.904C699.725 94.504 699.309 96.296 698.797 98.28C698.349 100.264 697.901 102.216 697.453 104.136C697.005 106.056 696.557 107.816 696.109 109.416H696.589L732.397 60.456L749.773 60.456L735.277 129H722.317L729.133 96.744C729.517 94.888 729.901 93.032 730.285 91.176C730.733 89.32 731.181 87.4 731.629 85.416C732.077 83.432 732.557 81.384 733.069 79.272L732.685 79.176L696.877 129H679.309Z" fill="white" fill-opacity="0.25"/>
<path d="M-4.904 533L9.4 465.8H24.664L45.976 506.216L54.52 465.8H69.784L55.48 533H41.176L19.288 491.048L10.36 533H-4.904ZM66.4398 533L80.7438 465.8H132.68L129.608 480.104H93.7998L91.2078 492.2H114.824L111.944 506.024H88.3278L85.6398 518.696H121.832L118.76 533H66.4398ZM160.47 533.864C153.878 533.864 148.374 532.488 143.958 529.736C139.606 526.92 136.566 523.016 134.838 518.024C133.174 512.968 133.046 507.144 134.454 500.552L141.846 465.8H158.07L150.294 502.28C149.59 505.608 149.59 508.52 150.294 511.016C150.998 513.448 152.31 515.336 154.23 516.68C156.214 518.024 158.678 518.696 161.622 518.696C165.462 518.696 168.822 517.448 171.702 514.952C174.582 512.456 176.438 509.192 177.27 505.16L185.622 465.8H201.75L193.014 506.792C191.798 512.424 189.686 517.256 186.678 521.288C183.67 525.32 179.926 528.424 175.446 530.6C171.03 532.776 166.038 533.864 160.47 533.864Z" fill="white" fill-opacity="0.25"/>
<path d="M100.596 430L114.9 362.8H130.164L151.476 403.216L160.02 362.8H175.284L160.98 430H146.676L124.788 388.048L115.86 430H100.596ZM203.908 430.864C197.316 430.864 191.812 429.488 187.396 426.736C183.044 423.92 180.004 420.016 178.276 415.024C176.612 409.968 176.484 404.144 177.892 397.552L185.284 362.8H201.508L193.732 399.28C193.028 402.608 193.028 405.52 193.732 408.016C194.436 410.448 195.748 412.336 197.668 413.68C199.652 415.024 202.116 415.696 205.06 415.696C208.9 415.696 212.26 414.448 215.14 411.952C218.02 409.456 219.876 406.192 220.708 402.16L229.06 362.8H245.188L236.452 403.792C235.236 409.424 233.124 414.256 230.116 418.288C227.108 422.32 223.364 425.424 218.884 427.6C214.468 429.776 209.476 430.864 203.908 430.864ZM233.764 430L274.757 362.8H293.285L305.957 430H289.253L286.565 413.776H260.837L251.429 430H233.764ZM268.421 400.624H284.453L280.901 379.12L268.421 400.624Z" fill="white" fill-opacity="0.25"/>
<path d="M-134.436 430.864C-141.028 430.864 -146.532 429.488 -150.948 426.736C-155.3 423.92 -158.34 420.016 -160.068 415.024C-161.732 409.968 -161.86 404.144 -160.452 397.552L-153.06 362.8H-136.836L-144.612 399.28C-145.316 402.608 -145.316 405.52 -144.612 408.016C-143.908 410.448 -142.596 412.336 -140.676 413.68C-138.692 415.024 -136.228 415.696 -133.284 415.696C-129.444 415.696 -126.084 414.448 -123.204 411.952C-120.324 409.456 -118.468 406.192 -117.636 402.16L-109.284 362.8H-93.156L-101.892 403.792C-103.108 409.424 -105.22 414.256 -108.228 418.288C-111.236 422.32 -114.98 425.424 -119.46 427.6C-123.876 429.776 -128.868 430.864 -134.436 430.864ZM-65.5297 430.864C-72.1217 430.864 -77.6257 429.488 -82.0417 426.736C-86.3937 423.92 -89.4337 420.016 -91.1617 415.024C-92.8257 409.968 -92.9537 404.144 -91.5457 397.552L-84.1537 362.8H-67.9297L-75.7057 399.28C-76.4097 402.608 -76.4097 405.52 -75.7057 408.016C-75.0017 410.448 -73.6897 412.336 -71.7697 413.68C-69.7857 415.024 -67.3217 415.696 -64.3777 415.696C-60.5377 415.696 -57.1777 414.448 -54.2977 411.952C-51.4177 409.456 -49.5617 406.192 -48.7297 402.16L-40.3777 362.8H-24.2497L-32.9857 403.792C-34.2017 409.424 -36.3137 414.256 -39.3217 418.288C-42.3297 422.32 -46.0737 425.424 -50.5537 427.6C-54.9697 429.776 -59.9617 430.864 -65.5297 430.864ZM2.394 430.96C-3.878 430.96 -9.734 429.808 -15.174 427.504C-20.614 425.2 -25.318 421.904 -29.286 417.616L-18.726 406.288C-15.078 410.064 -11.462 412.848 -7.878 414.64C-4.23 416.368 -0.358 417.232 3.738 417.232C5.978 417.232 7.898 416.976 9.498 416.464C11.098 415.888 12.314 415.088 13.146 414.064C14.042 412.976 14.49 411.728 14.49 410.32C14.49 408.848 13.85 407.632 12.57 406.672C11.354 405.712 9.274 404.848 6.33 404.08L-7.686 400.432C-12.358 399.152 -15.91 397.072 -18.342 394.192C-20.774 391.312 -21.99 387.728 -21.99 383.44C-21.99 378.96 -20.934 375.12 -18.822 371.92C-16.646 368.72 -13.574 366.256 -9.606 364.528C-5.638 362.736 -0.933998 361.84 4.506 361.84C10.138 361.84 15.546 362.864 20.73 364.912C25.978 366.96 30.458 369.808 34.17 373.456L23.994 384.976C20.73 381.776 17.402 379.408 14.01 377.872C10.618 376.336 6.97 375.568 3.066 375.568C0.122001 375.568 -2.214 376.112 -3.942 377.2C-5.67 378.224 -6.534 379.664 -6.534 381.52C-6.534 382.928 -5.99 384.08 -4.902 384.976C-3.75 385.808 -1.894 386.576 0.666 387.28L13.818 390.448C19.322 391.728 23.482 393.872 26.298 396.88C29.178 399.888 30.618 403.6 30.618 408.016C30.618 412.624 29.434 416.656 27.066 420.112C24.762 423.568 21.498 426.256 17.274 428.176C13.05 430.032 8.09 430.96 2.394 430.96ZM32.9085 430L47.2125 362.8H63.3405L49.0365 430H32.9085Z" fill="white" fill-opacity="0.25"/>
<path d="M74.12 287.272H109.928V297.928H74.12V287.272ZM22.088 265H65.288V274.408H22.088V265ZM21.128 303.208H65.192V312.904H21.128V303.208ZM20.84 286.408H66.056V295.912H20.84V286.408ZM89.672 291.88H100.808V345.16H89.672V291.88ZM38.12 256.264H49.352V269.224H38.12V256.264ZM38.12 295.336H49.352V345.544H38.12V295.336ZM68.936 263.08L82.376 266.824C82.28 267.784 81.608 268.264 79.88 268.552V296.776C79.88 311.08 78.056 332.296 65 345.832C63.56 343.336 59.336 339.4 56.744 337.96C67.88 326.152 68.936 309.736 68.936 296.584V263.08ZM100.328 256.456L109.544 264.808C99.752 269.224 86.696 272.488 75.464 274.6C74.888 272.104 73.256 268.072 71.912 265.864C82.184 263.56 93.512 260.104 100.328 256.456ZM48.488 313.288C51.464 315.112 60.68 322.312 62.984 324.232L56.36 332.488C53.192 328.648 45.896 321.448 42.344 318.28L48.488 313.288ZM26.888 275.848L35.72 273.736C37.448 277.192 38.792 281.896 39.272 285.064L29.864 287.56C29.672 284.392 28.424 279.496 26.888 275.848ZM50.792 273.544L60.968 275.464C59.144 279.88 57.512 284.008 56.072 286.984L46.952 285.064C48.296 281.8 49.928 276.904 50.792 273.544ZM38.216 308.872L46.376 311.848C41.672 322.408 33.704 333.448 26.024 339.688C24.2 337.192 20.84 333.352 18.44 331.528C26.024 326.632 33.992 317.32 38.216 308.872ZM158.408 260.392C157.736 263.08 156.872 267.4 156.392 269.512C155.048 276.04 152.648 287.752 150.056 297.544C146.6 310.984 140.168 330.568 134.888 341.992L121.544 337.48C127.208 327.784 134.504 307.72 138.152 294.28C140.552 285.256 142.76 274.696 143.432 269.032C143.912 265.48 144.008 261.544 143.72 259.24L158.408 260.392ZM133.928 274.792C145.64 274.792 159.176 272.968 171.656 269.992V281.992C159.752 284.776 144.68 286.408 133.832 286.408C129.128 286.408 125.576 286.216 122.216 286.024L121.832 274.024C126.824 274.6 129.992 274.792 133.928 274.792ZM164.072 289.48C169.448 288.904 176.36 288.52 182.6 288.52C188.072 288.52 193.832 288.808 199.4 289.384L199.208 300.904C194.312 300.328 188.456 299.656 182.696 299.656C176.072 299.656 170.12 299.944 164.072 300.712V289.48ZM169.256 313.576C168.584 316.36 168.008 319.432 168.008 321.544C168.008 325.768 170.792 328.936 181.16 328.936C187.592 328.936 194.216 328.264 201.032 327.016L200.552 339.208C195.176 339.976 188.744 340.552 181.064 340.552C164.84 340.552 156.2 335.08 156.2 325.384C156.2 320.872 157.064 316.264 157.832 312.52L169.256 313.576Z" fill="white" fill-opacity="0.25"/>
<path d="M250.096 334L264.4 266.8H279.664L300.976 307.216L309.52 266.8H324.784L310.48 334H296.176L274.288 292.048L265.36 334H250.096ZM321.44 334L335.744 266.8H387.68L384.608 281.104H348.8L346.208 293.2H369.824L366.944 307.024H343.328L340.64 319.696H376.832L373.76 334H321.44ZM393.989 334L393.605 266.8H409.637L408.869 308.368L429.125 266.8H444.293L446.981 308.176L463.781 266.8H480.389L451.493 334H434.309L431.813 291.088L411.077 334H393.989Z" fill="white" fill-opacity="0.25"/>
<path d="M495.096 533L509.4 465.8H524.664L545.976 506.216L554.52 465.8H569.784L555.48 533H541.176L519.288 491.048L510.36 533H495.096ZM566.44 533L580.744 465.8H632.68L629.608 480.104H593.8L591.208 492.2H614.824L611.944 506.024H588.328L585.64 518.696H621.832L618.76 533H566.44ZM660.47 533.864C653.878 533.864 648.374 532.488 643.958 529.736C639.606 526.92 636.566 523.016 634.838 518.024C633.174 512.968 633.046 507.144 634.454 500.552L641.846 465.8H658.07L650.294 502.28C649.59 505.608 649.59 508.52 650.294 511.016C650.998 513.448 652.31 515.336 654.23 516.68C656.214 518.024 658.678 518.696 661.622 518.696C665.462 518.696 668.822 517.448 671.702 514.952C674.582 512.456 676.438 509.192 677.27 505.16L685.622 465.8H701.75L693.014 506.792C691.798 512.424 689.686 517.256 686.678 521.288C683.67 525.32 679.926 528.424 675.446 530.6C671.03 532.776 666.038 533.864 660.47 533.864Z" fill="white" fill-opacity="0.25"/>
<path d="M270.928 513.04C273.808 513.04 276.016 512.784 277.552 512.272C279.088 511.76 280.144 511.088 280.72 510.256C281.296 509.424 281.584 508.528 281.584 507.568C281.584 506.032 281.136 504.24 280.24 502.192C279.408 500.144 278.352 498 277.072 495.76C275.792 493.52 274.448 491.376 273.04 489.328C271.696 487.28 270.48 485.488 269.392 483.952L280.816 476.368C283.568 480.08 285.936 483.76 287.92 487.408C289.904 490.992 291.504 494.32 292.72 497.392C294 500.464 294.896 503.088 295.408 505.264C295.92 507.312 296.688 508.912 297.712 510.064C298.8 511.152 300.048 511.92 301.456 512.368C302.864 512.816 304.272 513.04 305.68 513.04C308.112 513.04 309.84 513.68 310.864 514.96C311.952 516.176 312.496 517.712 312.496 519.568C312.496 521.552 311.824 523.216 310.48 524.56C309.2 525.84 307.28 526.48 304.72 526.48C301.904 526.48 299.44 526.096 297.328 525.328C295.216 524.56 293.424 523.344 291.952 521.68C290.48 520.016 289.232 517.904 288.208 515.344L294.064 516.592C293.552 518.384 292.368 520.048 290.512 521.584C288.72 523.056 286.32 524.272 283.312 525.232C280.368 526.128 276.88 526.576 272.848 526.576C270.928 526.576 268.784 526.416 266.416 526.096C264.112 525.776 261.808 525.296 259.504 524.656C257.264 524.016 255.216 523.184 253.36 522.16L258.064 509.968C260.432 510.992 262.704 511.76 264.88 512.272C267.12 512.784 269.136 513.04 270.928 513.04ZM304.844 526.48L305.804 513.04C309.644 513.04 312.588 512.848 314.636 512.464C316.684 512.08 318.092 511.376 318.86 510.352C319.692 509.264 320.108 507.728 320.108 505.744C320.108 503.952 319.852 501.808 319.34 499.312C318.892 496.816 318.284 494.224 317.516 491.536C316.812 488.848 316.044 486.384 315.212 484.144L328.46 480.496C329.292 482.672 330.092 485.2 330.86 488.08C331.628 490.96 332.268 493.936 332.78 497.008C333.292 500.016 333.548 502.928 333.548 505.744C333.548 510.096 332.844 513.648 331.436 516.4C330.028 519.088 328.044 521.168 325.484 522.64C322.988 524.112 319.98 525.136 316.46 525.712C312.94 526.224 309.068 526.48 304.844 526.48ZM328.556 548.752C326.7 548.752 325.1 548.08 323.756 546.736C322.476 545.456 321.836 543.92 321.836 542.128C321.836 540.272 322.476 538.672 323.756 537.328C325.1 535.984 326.7 535.312 328.556 535.312C330.348 535.312 331.884 535.984 333.164 537.328C334.444 538.672 335.084 540.272 335.084 542.128C335.084 543.92 334.444 545.456 333.164 546.736C331.884 548.08 330.348 548.752 328.556 548.752ZM311.948 548.752C310.092 548.752 308.492 548.08 307.148 546.736C305.868 545.456 305.228 543.92 305.228 542.128C305.228 540.272 305.868 538.672 307.148 537.328C308.492 535.984 310.092 535.312 311.948 535.312C313.74 535.312 315.276 535.984 316.556 537.328C317.836 538.672 318.476 540.272 318.476 542.128C318.476 543.92 317.836 545.456 316.556 546.736C315.276 548.08 313.74 548.752 311.948 548.752ZM360.272 513.04C363.152 513.04 365.36 512.784 366.896 512.272C368.432 511.76 369.488 511.088 370.064 510.256C370.64 509.424 370.928 508.528 370.928 507.568C370.928 506.032 370.48 504.24 369.584 502.192C368.752 500.144 367.696 498 366.416 495.76C365.136 493.52 363.792 491.376 362.384 489.328C361.04 487.28 359.824 485.488 358.736 483.952L370.16 476.368C372.912 480.08 375.28 483.76 377.264 487.408C379.248 490.992 380.848 494.32 382.064 497.392C383.344 500.464 384.24 503.088 384.752 505.264C385.264 507.312 386.032 508.912 387.056 510.064C388.144 511.152 389.392 511.92 390.8 512.368C392.208 512.816 393.616 513.04 395.024 513.04C397.456 513.04 399.184 513.68 400.208 514.96C401.296 516.176 401.84 517.712 401.84 519.568C401.84 521.552 401.168 523.216 399.824 524.56C398.544 525.84 396.624 526.48 394.064 526.48C391.248 526.48 388.784 526.096 386.672 525.328C384.56 524.56 382.768 523.344 381.296 521.68C379.824 520.016 378.576 517.904 377.552 515.344L383.408 516.592C382.896 518.384 381.712 520.048 379.856 521.584C378.064 523.056 375.664 524.272 372.656 525.232C369.712 526.128 366.224 526.576 362.192 526.576C360.272 526.576 358.128 526.416 355.76 526.096C353.456 525.776 351.152 525.296 348.848 524.656C346.608 524.016 344.56 523.184 342.704 522.16L347.408 509.968C349.776 510.992 352.048 511.76 354.224 512.272C356.464 512.784 358.48 513.04 360.272 513.04ZM394.188 526.48L395.148 513.04C398.604 513.04 402.028 512.848 405.42 512.464C408.812 512.08 412.108 511.504 415.308 510.736C418.508 509.968 421.548 508.976 424.428 507.76C427.372 506.544 430.124 505.072 432.684 503.344C430.764 502.192 428.684 501.2 426.444 500.368C424.204 499.536 421.804 498.928 419.244 498.544C416.748 498.096 414.092 497.872 411.276 497.872C410.252 497.872 409.164 497.904 408.012 497.968C406.924 498.032 405.804 498.16 404.652 498.352C403.5 498.48 402.348 498.672 401.196 498.928L399.276 485.776C401.132 485.264 403.084 484.912 405.132 484.72C407.244 484.464 409.1 484.336 410.7 484.336C414.156 484.336 417.324 484.72 420.204 485.488C423.148 486.256 425.836 487.216 428.268 488.368C430.764 489.52 433.068 490.672 435.18 491.824C437.356 492.976 439.404 493.936 441.324 494.704C443.308 495.472 445.228 495.856 447.083 495.856H450.635L452.172 508.624C449.42 508.752 446.828 509.296 444.396 510.256C442.028 511.152 439.66 512.304 437.292 513.712C434.988 515.056 432.492 516.464 429.804 517.936C427.18 519.408 424.204 520.784 420.876 522.064C417.548 523.344 413.708 524.4 409.356 525.232C405.004 526.064 399.948 526.48 394.188 526.48ZM422.988 548.56C421.132 548.56 419.532 547.92 418.188 546.64C416.908 545.36 416.268 543.792 416.268 541.936C416.268 540.08 416.908 538.448 418.188 537.04C419.532 535.696 421.132 535.024 422.988 535.024C424.844 535.024 426.412 535.696 427.692 537.04C429.036 538.448 429.708 540.08 429.708 541.936C429.708 543.792 429.036 545.36 427.692 546.64C426.412 547.92 424.844 548.56 422.988 548.56Z" fill="white" fill-opacity="0.25"/>
<path d="M365.564 430.864C358.972 430.864 353.468 429.488 349.052 426.736C344.7 423.92 341.66 420.016 339.932 415.024C338.268 409.968 338.14 404.144 339.548 397.552L346.94 362.8H363.164L355.388 399.28C354.684 402.608 354.684 405.52 355.388 408.016C356.092 410.448 357.404 412.336 359.324 413.68C361.308 415.024 363.772 415.696 366.716 415.696C370.556 415.696 373.916 414.448 376.796 411.952C379.676 409.456 381.532 406.192 382.364 402.16L390.716 362.8H406.844L398.108 403.792C396.892 409.424 394.78 414.256 391.772 418.288C388.764 422.32 385.02 425.424 380.54 427.6C376.124 429.776 371.132 430.864 365.564 430.864ZM434.47 430.864C427.878 430.864 422.374 429.488 417.958 426.736C413.606 423.92 410.566 420.016 408.838 415.024C407.174 409.968 407.046 404.144 408.454 397.552L415.846 362.8H432.07L424.294 399.28C423.59 402.608 423.59 405.52 424.294 408.016C424.998 410.448 426.31 412.336 428.23 413.68C430.214 415.024 432.678 415.696 435.622 415.696C439.462 415.696 442.822 414.448 445.702 411.952C448.582 409.456 450.438 406.192 451.27 402.16L459.622 362.8H475.75L467.014 403.792C465.798 409.424 463.686 414.256 460.678 418.288C457.67 422.32 453.926 425.424 449.446 427.6C445.03 429.776 440.038 430.864 434.47 430.864ZM502.394 430.96C496.122 430.96 490.266 429.808 484.826 427.504C479.386 425.2 474.682 421.904 470.714 417.616L481.274 406.288C484.922 410.064 488.538 412.848 492.122 414.64C495.77 416.368 499.642 417.232 503.738 417.232C505.978 417.232 507.898 416.976 509.498 416.464C511.098 415.888 512.314 415.088 513.146 414.064C514.042 412.976 514.49 411.728 514.49 410.32C514.49 408.848 513.85 407.632 512.57 406.672C511.354 405.712 509.274 404.848 506.33 404.08L492.314 400.432C487.642 399.152 484.09 397.072 481.658 394.192C479.226 391.312 478.01 387.728 478.01 383.44C478.01 378.96 479.066 375.12 481.178 371.92C483.354 368.72 486.426 366.256 490.394 364.528C494.362 362.736 499.066 361.84 504.506 361.84C510.138 361.84 515.546 362.864 520.73 364.912C525.978 366.96 530.458 369.808 534.17 373.456L523.994 384.976C520.73 381.776 517.402 379.408 514.01 377.872C510.618 376.336 506.97 375.568 503.066 375.568C500.122 375.568 497.786 376.112 496.058 377.2C494.33 378.224 493.466 379.664 493.466 381.52C493.466 382.928 494.01 384.08 495.098 384.976C496.25 385.808 498.106 386.576 500.666 387.28L513.818 390.448C519.322 391.728 523.482 393.872 526.298 396.88C529.178 399.888 530.618 403.6 530.618 408.016C530.618 412.624 529.434 416.656 527.066 420.112C524.762 423.568 521.498 426.256 517.274 428.176C513.05 430.032 508.09 430.96 502.394 430.96ZM532.909 430L547.213 362.8H563.341L549.037 430H532.909Z" fill="white" fill-opacity="0.25"/>
<path d="M331.1 82.56H360.94V91.44H331.1V82.56ZM287.74 64H323.74V71.84H287.74V64ZM286.94 95.84H323.66V103.92H286.94V95.84ZM286.7 81.84H324.38V89.76H286.7V81.84ZM344.06 86.4H353.34V130.8H344.06V86.4ZM301.1 56.72H310.46V67.52H301.1V56.72ZM301.1 89.28H310.46V131.12H301.1V89.28ZM326.78 62.4L337.98 65.52C337.9 66.32 337.34 66.72 335.9 66.96V90.48C335.9 102.4 334.38 120.08 323.5 131.36C322.3 129.28 318.78 126 316.62 124.8C325.9 114.96 326.78 101.28 326.78 90.32V62.4ZM352.94 56.88L360.62 63.84C352.46 67.52 341.58 70.24 332.22 72C331.74 69.92 330.38 66.56 329.26 64.72C337.82 62.8 347.26 59.92 352.94 56.88ZM309.74 104.24C312.22 105.76 319.9 111.76 321.82 113.36L316.3 120.24C313.66 117.04 307.58 111.04 304.62 108.4L309.74 104.24ZM291.74 73.04L299.1 71.28C300.54 74.16 301.66 78.08 302.06 80.72L294.22 82.8C294.06 80.16 293.02 76.08 291.74 73.04ZM311.66 71.12L320.14 72.72C318.62 76.4 317.26 79.84 316.06 82.32L308.46 80.72C309.58 78 310.94 73.92 311.66 71.12ZM301.18 100.56L307.98 103.04C304.06 111.84 297.42 121.04 291.02 126.24C289.5 124.16 286.7 120.96 284.7 119.44C291.02 115.36 297.66 107.6 301.18 100.56Z" fill="white" fill-opacity="0.25"/>
</g>
<defs>
<clipPath id="clip0_204_4">
<rect width="500" height="500" fill="white"/>
</clipPath>
</defs>
</svg>
